<svg width="300" height="300" xmlns="http://www.w3.org/2000/svg">

 <g>
  <title>Layer 1</title>
  <path fill-rule="evenodd" fill="#ffffff" d="m167.964,132.005l0,-132.005l131.972,0l0,132.005l-131.972,0zm107.977,-108l-83.982,0l0,84l83.982,0l0,-84zm-26.994,57l-29.994,0l0,-30l29.994,0l0,30zm-248.947,87l131.972,0l0,132.01l-131.972,0l0,-132.01zm23.992,108.008l83.982,0l0,-84.008l-83.982,0l0,84l0,0.008zm20.782,-42l21.209,-21.214l21.209,21.212l-21.206,21.215l-21.212,-21.213zm-44.774,-234.013l131.972,0l0,132.005l-131.972,0l0,-132.005zm23.992,108.005l83.982,0l0,-84l-83.982,0l0,84zm27,-57l29.991,0l0,30l-29.991,0l0,-30zm155.964,117l24,0l0,30l44.99,0l0,-30l24,0l0,78l-53.998,0l0,-24l-15,0l0,30l68.985,0l0,48l-24,0l0,-24l-9,0l0,24l-12,0l0,-24l-9,0l0,24l-23.98,0l0,-24l-29.994,0l0,24l-24,0l0,-132l38.992,0l0.005,0zm-15,84l15,0l0,-30l-15,0l0,30zm0,-54l15,0l0,-6l-15,0l0,6z" class="cls-1" data-name="Forma 1" id="Forma_1"/>
 </g>
</svg>